<?xml version="1.0" standalone="no"?>
<!DOCTYPE svg PUBLIC "-//W3C//DTD SVG 20010904//EN"
 "http://www.w3.org/TR/2001/REC-SVG-20010904/DTD/svg10.dtd">
<svg version="1.0" xmlns="http://www.w3.org/2000/svg"
 width="1200.000000pt" height="1200.000000pt" viewBox="0 0 1200.000000 1200.000000"
 preserveAspectRatio="xMidYMid meet">
<metadata>
Created by potrace 1.16, written by Peter Selinger 2001-2019
</metadata>
<g transform="translate(0.000000,1200.000000) scale(0.100000,-0.100000)"
fill="#000000" stroke="none">
<path d="M3650 7754 l0 -386 193 4 c177 3 196 5 245 27 94 43 140 123 128 224
-7 66 -33 107 -85 136 l-42 23 33 17 c21 10 42 33 56 61 31 60 26 145 -12 194
-51 67 -130 86 -357 86 l-159 0 0 -386z m350 227 c27 -19 35 -48 25 -88 -8
-34 -60 -53 -145 -53 l-70 0 0 86 0 87 83 -7 c55 -4 90 -12 107 -25z m7 -291
c42 -27 54 -80 28 -131 -21 -39 -50 -49 -146 -49 l-79 0 0 101 0 101 88 -4
c50 -2 96 -10 109 -18z"/>
<path d="M5558 8088 c16 -29 75 -139 130 -243 l102 -191 0 -142 0 -142 80 0
80 0 0 151 0 151 125 230 c69 126 125 232 125 234 0 2 -39 4 -88 4 l-87 0 -79
-157 -78 -158 -79 158 -79 157 -91 0 -91 0 30 -52z"/>
<path d="M6988 8028 c-20 -53 -31 -68 -71 -93 -40 -26 -47 -35 -47 -62 0 -32
2 -33 39 -33 l39 0 4 -182 c3 -199 10 -227 69 -271 34 -25 139 -34 208 -17
l51 12 0 59 0 58 -62 -5 c-101 -9 -102 -7 -106 185 l-3 161 85 0 86 0 0 60 0
60 -85 0 -85 0 0 65 0 65 -49 0 -49 0 -24 -62z"/>
<path d="M5158 7955 c-87 -28 -128 -93 -115 -185 8 -62 34 -86 155 -147 62
-31 117 -64 123 -74 35 -66 -81 -91 -213 -45 l-68 23 0 -68 0 -68 43 -13 c23
-7 90 -13 152 -13 93 1 116 4 152 23 97 51 128 159 72 251 -15 24 -47 46 -137
89 -121 59 -143 82 -106 109 31 22 111 13 197 -22 14 -6 22 4 42 50 14 32 25
59 23 60 -2 2 -25 11 -53 20 -69 24 -207 29 -267 10z"/>
<path d="M6422 7961 c-18 -5 -53 -16 -77 -25 l-43 -17 20 -47 c11 -26 23 -50
27 -54 3 -4 35 2 70 12 87 28 136 26 166 -5 15 -14 25 -36 25 -53 l0 -29 -97
-6 c-193 -12 -264 -64 -264 -192 0 -119 66 -185 186 -185 62 0 113 18 154 56
l38 34 16 -40 c15 -40 15 -40 71 -40 l56 0 0 219 c0 274 -9 304 -105 354 -44
23 -183 33 -243 18z m184 -396 c-9 -47 -47 -77 -105 -83 -40 -3 -52 -1 -70 17
-35 35 -24 98 22 123 12 6 51 14 87 17 63 6 65 5 68 -18 2 -13 1 -38 -2 -56z"/>
<path d="M7560 7961 c-47 -15 -87 -40 -119 -76 -54 -61 -65 -98 -65 -220 -1
-104 1 -113 29 -164 57 -103 155 -148 304 -138 48 3 104 12 126 20 l40 14 3
63 c3 56 1 62 -15 57 -81 -25 -135 -37 -173 -37 -77 0 -140 45 -156 113 l-6
27 191 0 191 0 0 68 c0 183 -96 284 -269 281 -31 0 -67 -4 -81 -8z m159 -132
c12 -11 26 -32 32 -46 19 -52 17 -53 -101 -53 -104 0 -110 1 -110 20 0 28 26
77 47 89 32 19 107 13 132 -10z"/>
<path d="M8294 7951 c-22 -10 -54 -35 -71 -56 -34 -40 -33 -40 -48 33 l-7 32
-64 0 -64 0 0 -295 0 -295 85 0 85 0 0 175 c0 135 3 183 15 204 19 38 89 71
148 71 l47 0 0 38 c0 20 3 54 6 75 l7 37 -49 0 c-27 0 -67 -9 -90 -19z"/>
<path d="M4362 7728 c3 -233 3 -233 30 -279 33 -56 79 -81 161 -87 70 -5 139
18 179 60 l27 29 11 -40 11 -41 64 0 65 0 0 295 0 295 -84 0 -84 0 -4 -197
c-3 -169 -6 -202 -21 -224 -32 -48 -110 -65 -154 -34 -35 24 -43 77 -43 273
l0 182 -81 0 -80 0 3 -232z"/>
<path d="M5909 6568 c-248 -19 -497 -152 -655 -351 -108 -136 -175 -293 -209
-489 l-6 -38 -1037 0 -1038 0 -315 234 c-221 165 -325 236 -350 241 -76 14
-146 -44 -121 -100 6 -14 114 -101 243 -197 l231 -173 -87 -3 -87 -3 -307 230
c-168 126 -319 235 -336 241 -67 25 -145 -16 -145 -77 0 -32 10 -41 242 -213
l242 -180 -90 0 -90 0 -314 234 c-191 142 -328 236 -347 241 -64 13 -133 -28
-133 -80 0 -30 36 -60 320 -270 140 -104 261 -194 268 -200 10 -9 -49 -58
-273 -224 -157 -117 -292 -222 -300 -234 -21 -30 -19 -52 8 -82 23 -27 79 -42
119 -32 13 4 165 112 338 242 l313 235 90 0 90 0 -234 -175 c-135 -102 -238
-185 -243 -199 -24 -61 31 -112 111 -103 38 4 83 34 358 241 l316 237 87 -3
86 -3 -232 -173 c-222 -166 -252 -192 -252 -226 0 -46 82 -88 142 -73 13 4
165 112 338 242 l313 235 1041 -2 1041 -3 7 -51 c26 -181 128 -380 263 -517
456 -461 1219 -354 1529 214 45 82 73 161 95 269 l18 85 878 3 878 2 272 -204
c149 -112 281 -208 292 -215 12 -6 36 -11 54 -11 17 0 192 51 388 114 196 63
500 160 676 216 333 106 388 128 399 155 26 69 3 82 -326 189 -726 234 -1117
356 -1146 356 -24 0 -90 -44 -320 -215 l-290 -215 -876 0 -876 0 -4 23 c-3 12
-10 51 -16 87 -66 369 -377 684 -745 754 -101 19 -177 23 -286 14z m-87 -571
c83 -50 125 -142 183 -392 6 -25 11 -14 31 75 38 165 104 288 176 326 39 20
117 18 155 -6 60 -36 83 -101 37 -108 -14 -2 -27 6 -37 22 -10 14 -34 30 -55
37 -77 23 -132 -34 -184 -188 -32 -95 -63 -263 -73 -388 -14 -188 -14 -187
-43 -183 l-27 3 -12 135 c-28 313 -87 525 -168 600 -40 38 -98 34 -136 -8 -49
-55 -98 -31 -62 31 39 65 144 87 215 44z m3994 -192 c236 -76 472 -151 524
-168 52 -16 91 -31 85 -33 -5 -2 -215 -69 -465 -149 -250 -80 -487 -156 -525
-169 l-71 -23 -174 128 -173 129 359 1 c386 0 412 3 447 51 18 24 18 30 7 58
-7 17 -22 36 -34 43 -15 9 -129 13 -398 17 l-378 5 173 128 c94 70 177 125
183 123 6 -2 204 -66 440 -141z"/>
<path d="M2805 4198 c-5 -16 -135 -623 -135 -632 0 -3 13 -6 29 -6 20 0 31 6
35 18 3 9 32 148 66 307 34 160 64 298 66 308 4 13 -1 17 -26 17 -17 0 -33 -6
-35 -12z"/>
<path d="M3095 4198 c-5 -16 -135 -623 -135 -632 0 -3 13 -6 29 -6 20 0 31 6
35 18 3 9 32 148 66 307 34 160 64 298 66 308 4 13 -1 17 -26 17 -17 0 -33 -6
-35 -12z"/>
<path d="M3932 4103 c-12 -60 -22 -118 -22 -130 0 -31 -12 -29 -38 7 -42 57
-137 59 -209 4 -50 -38 -95 -140 -101 -228 -6 -95 2 -138 33 -169 51 -50 129
-41 197 23 23 22 43 40 44 40 2 0 1 -20 -3 -45 -5 -43 -5 -45 20 -45 17 0 26
7 30 23 4 12 31 141 62 287 31 146 60 282 65 303 8 37 8 37 -24 37 l-32 0 -22
-107z m-82 -158 c49 -52 12 -220 -64 -294 -60 -58 -133 -58 -156 0 -17 40 -7
145 20 208 47 107 142 148 200 86z"/>
<path d="M8095 4198 c-2 -7 -32 -143 -65 -303 -34 -159 -64 -300 -67 -312 -4
-20 -1 -23 25 -23 35 0 31 -8 66 149 38 171 72 228 152 256 49 17 92 3 100
-32 6 -21 -40 -275 -63 -356 -4 -16 0 -18 28 -15 l33 3 33 150 c52 237 45 278
-51 309 -34 11 -100 -14 -143 -57 -24 -23 -43 -36 -43 -30 0 6 11 60 25 120
14 59 27 118 30 131 5 19 1 22 -25 22 -17 0 -33 -6 -35 -12z"/>
<path d="M1183 4033 c4 -76 10 -214 13 -306 l7 -168 34 3 c33 3 34 4 138 226
57 122 110 238 116 257 7 19 16 35 19 35 4 0 10 -80 14 -177 3 -98 9 -215 13
-260 l6 -83 31 0 c31 0 31 1 166 296 74 163 137 300 138 305 2 5 -11 9 -30 9
l-34 0 -96 -222 c-53 -123 -101 -240 -108 -260 -6 -21 -15 -38 -19 -38 -4 0
-7 17 -7 38 1 82 -16 438 -21 460 -4 17 -12 22 -37 22 -30 -1 -33 -5 -100
-148 -38 -81 -91 -196 -117 -255 -26 -60 -50 -111 -52 -114 -3 -3 -6 73 -6
168 -1 96 -4 213 -7 262 l-7 87 -30 0 -30 0 6 -137z"/>
<path d="M10826 4143 c-10 -48 -66 -390 -66 -402 0 -6 8 -11 18 -11 14 0 27
37 71 208 29 114 56 213 58 220 3 8 -8 12 -35 12 -36 0 -41 -3 -46 -27z"/>
<path d="M2107 4016 c-61 -22 -93 -53 -134 -131 -22 -41 -27 -66 -30 -140 -5
-103 10 -140 69 -171 39 -21 122 -23 179 -4 33 11 39 18 39 41 l0 28 -35 -15
c-55 -23 -129 -18 -161 10 -24 20 -28 31 -29 77 l0 54 75 6 c130 11 200 62
200 148 0 60 -19 86 -74 100 -54 13 -52 13 -99 -3z m101 -58 c7 -7 12 -27 12
-44 0 -56 -79 -99 -168 -92 l-43 3 27 53 c16 32 40 62 58 73 35 21 96 25 114
7z"/>
<path d="M4350 4014 c-19 -8 -50 -31 -68 -52 l-34 -37 5 48 c5 47 4 48 -22 45
-25 -3 -27 -7 -73 -223 -26 -121 -47 -223 -47 -227 -1 -5 12 -8 29 -8 32 0 36
8 60 135 35 184 99 275 194 275 27 0 36 5 41 21 12 38 -25 49 -85 23z"/>
<path d="M5477 4016 c-61 -22 -93 -53 -134 -131 -22 -41 -27 -66 -30 -140 -5
-103 10 -140 69 -171 39 -21 122 -23 179 -4 33 11 39 18 39 41 l0 28 -35 -15
c-55 -23 -129 -18 -161 10 -24 20 -28 31 -29 77 l0 54 75 6 c130 11 200 62
200 148 0 60 -19 86 -74 100 -54 13 -52 13 -99 -3z m101 -58 c7 -7 12 -27 12
-44 0 -56 -79 -99 -168 -92 l-43 3 27 53 c16 32 40 62 58 73 35 21 96 25 114
7z"/>
<path d="M6732 4018 c-60 -13 -123 -76 -151 -152 -26 -71 -30 -180 -8 -222 44
-85 147 -114 238 -68 41 21 96 91 116 148 25 73 24 181 -2 226 -36 61 -110 87
-193 68z m123 -80 c26 -30 27 -37 23 -113 -7 -134 -66 -217 -155 -217 -42 0
-81 25 -94 60 -15 37 -4 148 19 203 29 66 72 99 132 99 42 0 52 -4 75 -32z"/>
<path d="M8716 4015 c-52 -18 -110 -77 -138 -139 -19 -42 -23 -68 -23 -153 0
-98 1 -103 28 -131 54 -56 129 -48 204 21 l46 42 -7 -47 c-7 -46 -6 -48 17
-48 28 0 22 -20 90 303 l34 157 -23 0 c-17 0 -26 -9 -35 -35 -15 -41 -22 -43
-43 -14 -34 49 -91 66 -150 44z m123 -71 c47 -59 14 -209 -63 -290 -55 -57
-103 -63 -145 -16 -22 24 -23 32 -18 100 7 86 41 167 88 207 43 36 109 35 138
-1z"/>
<path d="M9346 4015 c-21 -7 -57 -31 -79 -52 l-39 -38 5 48 c5 47 4 48 -21 45
-25 -3 -27 -7 -94 -323 -37 -176 -67 -326 -68 -332 0 -8 12 -13 29 -13 28 0
29 1 50 103 12 56 24 119 28 140 3 20 8 37 10 37 2 0 15 -13 29 -29 57 -69
148 -61 224 18 61 63 85 131 85 241 0 97 -16 133 -72 156 -39 17 -38 17 -87
-1z m71 -58 c54 -42 18 -255 -55 -320 -47 -43 -134 -36 -159 13 -27 53 -7 158
45 241 45 70 124 102 169 66z"/>
<path d="M9916 4015 c-21 -7 -57 -31 -79 -52 l-39 -38 5 48 c5 47 4 48 -21 45
-25 -3 -27 -7 -94 -323 -37 -176 -67 -326 -68 -332 0 -8 12 -13 29 -13 28 0
29 1 50 103 12 56 24 119 28 140 3 20 8 37 10 37 2 0 15 -13 29 -29 57 -69
148 -61 224 18 61 63 85 131 85 241 0 97 -16 133 -72 156 -39 17 -38 17 -87
-1z m71 -58 c54 -42 18 -255 -55 -320 -47 -43 -134 -36 -159 13 -27 53 -7 158
45 241 45 70 124 102 169 66z"/>
<path d="M4625 4008 c-3 -7 -23 -100 -45 -207 -22 -107 -43 -205 -46 -218 -5
-20 -3 -23 24 -23 37 0 31 -17 82 230 23 107 43 203 46 213 4 14 -1 17 -26 17
-17 0 -33 -6 -35 -12z"/>
<path d="M4840 3995 c0 -30 39 -379 46 -412 4 -20 11 -23 47 -23 l42 0 120
222 c66 122 122 225 123 230 2 4 -11 8 -30 8 -32 0 -34 -3 -116 -158 -46 -86
-93 -178 -104 -204 -11 -27 -24 -48 -29 -48 -5 0 -9 26 -9 58 0 31 -7 116 -15
187 -8 72 -15 138 -15 148 0 12 -8 17 -30 17 -25 0 -30 -4 -30 -25z"/>
<path d="M6093 3978 c2 -24 17 -130 33 -236 l28 -193 -24 -45 c-40 -73 -72
-97 -125 -96 -40 0 -45 -2 -45 -23 0 -17 7 -24 28 -28 51 -10 104 9 142 51 26
30 315 546 338 604 2 4 -11 8 -30 8 l-34 0 -104 -205 c-102 -199 -105 -204
-108 -162 -1 23 -11 112 -22 198 -11 86 -20 159 -20 162 0 4 -14 7 -31 7 -31
0 -32 0 -26 -42z"/>
<path d="M7176 3948 c-61 -280 -65 -328 -27 -362 53 -48 132 -39 205 25 l46
41 -6 -46 c-7 -45 -6 -46 20 -46 14 0 26 1 26 3 0 2 20 100 45 217 25 117 45
219 45 227 0 8 -11 13 -28 13 -29 0 -29 -1 -52 -112 -43 -217 -110 -309 -215
-298 -57 5 -59 45 -15 246 16 76 30 144 30 151 0 8 -12 13 -29 13 -28 0 -30
-3 -45 -72z"/>
<path d="M10253 3978 c2 -24 17 -130 33 -236 l28 -193 -24 -45 c-40 -73 -72
-97 -125 -96 -40 0 -45 -2 -45 -23 0 -17 7 -24 28 -28 51 -10 104 9 142 51 26
30 315 546 338 604 2 4 -11 8 -30 8 l-34 0 -104 -205 c-102 -199 -105 -204
-108 -162 -1 23 -11 112 -22 198 -11 86 -20 159 -20 162 0 4 -14 7 -31 7 -31
0 -32 0 -26 -42z"/>
</g>
</svg>
