<?xml version="1.0" encoding="iso-8859-1"?>
<!-- Generator: Adobe Illustrator 19.0.0, SVG Export Plug-In . SVG Version: 6.00 Build 0)  -->
<svg version="1.1" id="Capa_1" xmlns="http://www.w3.org/2000/svg" xmlns:xlink="http://www.w3.org/1999/xlink" x="0px" y="0px"
	 viewBox="0 0 496.485 496.485" style="enable-background:new 0 0 496.485 496.485;" xml:space="preserve">
<g>
	<path style="fill:#454545;" d="M79.019,445.642v35.328c0,8.564,6.951,15.515,15.515,15.515h49.478
		c8.564,0,15.515-6.951,15.515-15.515v-35.328H79.019z"/>
	<path style="fill:#454545;" d="M336.958,445.642v35.328c0,8.564,6.951,15.515,15.515,15.515h49.478
		c8.564,0,15.515-6.951,15.515-15.515v-35.328H336.958z"/>
</g>
<path style="fill:#CACACA;" d="M482.552,128.419c-4.453,0-8.052-3.6-8.052-8.052c0-5.694-4.639-10.318-10.318-10.318h-8.844
	c-4.453,0-8.052-3.6-8.052-8.052s3.6-8.052,8.052-8.052h8.844c14.569,0,26.422,11.854,26.422,26.407
	C490.605,124.804,487.005,128.419,482.552,128.419z"/>
<rect x="463.686" y="118.939" style="fill:#6F6F6F;" width="32.303" height="87.226"/>
<path style="fill:#CACACA;" d="M13.933,128.419c4.453,0,8.052-3.6,8.052-8.052c0-5.694,4.624-10.318,10.318-10.318h8.844
	c4.453,0,8.052-3.6,8.052-8.052s-3.6-8.052-8.052-8.052h-8.844c-14.569,0-26.422,11.854-26.422,26.407
	C5.88,124.804,9.48,128.419,13.933,128.419z"/>
<rect x="0.496" y="118.939" style="fill:#6F6F6F;" width="32.303" height="87.226"/>
<path style="fill:#86DAF1;" d="M424.681,0H71.804c-17.129,0-31.03,13.886-31.03,31.03v279.087h414.937V31.03
	C455.711,13.886,441.825,0,424.681,0z"/>
<path style="fill:#ED6262;" d="M40.774,411.85v8.533c0,17.129,13.902,31.03,31.03,31.03h352.877c17.144,0,31.03-13.902,31.03-31.03
	v-8.533H40.774z"/>
<rect x="40.774" y="367.244" style="fill:#CD484B;" width="414.937" height="44.544"/>
<rect x="40.774" y="300.156" style="fill:#F3F3F3;" width="414.937" height="67.15"/>
<rect x="40.774" y="86.869" style="fill:#6F6F6F;" width="414.937" height="193.893"/>
<rect x="237.165" y="86.869" style="fill:#454545;" width="22.156" height="193.893"/>
<rect x="40.774" y="280.762" style="fill:#86DAF1;" width="414.937" height="19.394"/>
<circle style="fill:#F3F3F3;" cx="85.489" cy="389.57" r="12.133"/>
<g>
	<circle style="fill:#FFE21F;" cx="116.364" cy="389.57" r="12.133"/>
	<circle style="fill:#FFE21F;" cx="380.121" cy="389.57" r="12.133"/>
</g>
<circle style="fill:#F3F3F3;" cx="410.965" cy="389.57" r="12.133"/>
<g>
	<path style="fill:#FFBD49;" d="M411.245,316.866h-29.743c-9.309,0-16.865,7.556-16.865,16.865c0,9.309,7.54,16.849,16.865,16.849
		h29.743c9.309,0,16.865-7.54,16.865-16.849C428.094,324.422,420.554,316.866,411.245,316.866z"/>
	<path style="fill:#FFBD49;" d="M112.516,316.866H82.773c-9.309,0-16.865,7.556-16.865,16.865c0,9.309,7.54,16.849,16.865,16.849
		h29.743c9.309,0,16.849-7.54,16.849-16.849C129.381,324.422,121.825,316.866,112.516,316.866z"/>
</g>
<path style="fill:#454545;" d="M366.483,13.545H121.266c-16.508,0-29.882,13.374-29.882,29.882s13.374,29.898,29.882,29.898h245.217
	c16.508,0,29.882-13.374,29.882-29.898C396.366,26.934,382.992,13.545,366.483,13.545z"/>
<path style="opacity:0.1;fill:#FFFFFF;enable-background:new    ;" d="M455.711,86.869H40.774v93.96
	c0,8.859,6.78,16.958,15.825,17.33c9.418,0.574,17.33-6.966,17.33-16.384v-30.394c0-7.913,6.594-13.933,14.693-13.746
	c0,0,0,0,0.186,0c0,0,0,0,0.186,0c7.913-0.186,14.693,5.834,14.693,13.746v33.59c0,9.045,6.594,16.958,15.438,17.517
	c9.449,0.372,17.175-6.935,17.424-16.136v-44.87c0-9.433,7.835-16.958,17.377-16.539c8.906,0.528,15.577,8.487,15.577,17.377v42.853
	c0.264,8.642,6.858,16.275,15.546,16.834c9.604,0.372,17.33-7.152,17.33-16.57l0.186-36.507c0-9.418,7.727-16.958,17.33-16.586
	c8.859,0.559,15.639,8.471,15.639,17.517v39.517c0.186,8.859,7.54,16.012,16.384,16.012c9.232,0,16.57-7.54,16.57-16.57v-47.073
	c0-7.168,5.322-13.746,15.065-13.746c7.54-0.559,13.933,5.648,13.933,13.002v46.064c0,9.045,6.594,16.943,15.453,17.517
	c9.604,0.372,17.517-7.152,17.517-16.57v-34.351c0-7.199,5.368-13.746,14.879-13.746c8.099,0,14.693,6.594,14.693,14.507v26.438
	c0,8.859,6.78,16.958,15.639,17.33c9.418,0.574,17.517-6.966,17.517-16.384v-30.394c0-7.913,6.594-13.933,14.507-13.746
	c0.186,0,0.186,0,0.186,0c0.186,0,0.186,0,0.372,0c7.913-0.186,14.507,5.834,14.507,13.746v33.59c0,9.045,6.78,16.958,15.639,17.517
	c9.604,0.372,17.33-7.168,17.33-16.586V86.869H455.711z"/>
<g>
</g>
<g>
</g>
<g>
</g>
<g>
</g>
<g>
</g>
<g>
</g>
<g>
</g>
<g>
</g>
<g>
</g>
<g>
</g>
<g>
</g>
<g>
</g>
<g>
</g>
<g>
</g>
<g>
</g>
</svg>
