<svg id="Layer_5" enable-background="new 0 0 64 64" height="512" viewBox="0 0 64 64" width="512" xmlns="http://www.w3.org/2000/svg"><g><g><g><path d="m60.83 41.83-1.83-1.83v-4h-20v4l-1.83 1.83c-.75.75-1.17 1.77-1.17 2.83v13.34c0 2.21 1.79 4 4 4h18c2.21 0 4-1.79 4-4v-13.34c0-1.06-.42-2.08-1.17-2.83z" fill="#e6e9ed"/></g><g><path d="m62 31v4c0 .55-.45 1-1 1h-2-20-2c-.55 0-1-.45-1-1v-4c0-.28.11-.52.29-.71.19-.18.43-.29.71-.29h5 19c.55 0 1 .45 1 1z" fill="#aab2bd"/></g><g><path d="m61 7-2.8 14-3.6-3.6-12.6 12.6h-5c-.28 0-.52.11-.71.29l-4.29-4.29-9.57 9.57c-1.93-1-4.11-1.57-6.43-1.57l6-6c2.21 0 4.21-.9 5.66-2.34 1.44-1.45 2.34-3.45 2.34-5.66l2-2 7 7 11.6-11.6-3.6-3.6z" fill="#ff826e"/></g><g><path d="m16 22h-6c-2.21 0-4.21-.9-5.66-2.34-1.44-1.45-2.34-3.45-2.34-5.66h6c2.21 0 4.21.9 5.66 2.34 1.44 1.45 2.34 3.45 2.34 5.66z" fill="#b4dd7f"/></g><g><path d="m16 10h-6c-2.21 0-4.21-.9-5.66-2.34-1.44-1.45-2.34-3.45-2.34-5.66h6c2.21 0 4.21.9 5.66 2.34 1.44 1.45 2.34 3.45 2.34 5.66z" fill="#b4dd7f"/></g><g><path d="m24 8h6c0 2.21-.9 4.21-2.34 5.66-1.45 1.44-3.45 2.34-5.66 2.34h-6c0-2.21.9-4.21 2.34-5.66 1.45-1.44 3.45-2.34 5.66-2.34z" fill="#b4dd7f"/></g><g><path d="m24 20h6c0 2.21-.9 4.21-2.34 5.66-1.45 1.44-3.45 2.34-5.66 2.34h-6c0-2.21.9-4.21 2.34-5.66 1.45-1.44 3.45-2.34 5.66-2.34z" fill="#a0d468"/></g><g><path d="m54 56h2c1.1 0 2 .9 2 2v2c0 1.1-.9 2-2 2h-12c-1.1 0-2-.9-2-2v-2c0-1.1.9-2 2-2h2 4z" fill="#fcd770"/></g><g><path d="m58 48c0 1.1-.9 2-2 2h-2-2-4-4c-1.1 0-2-.9-2-2v-2c0-1.1.9-2 2-2h2 4 4 2c1.1 0 2 .9 2 2z" fill="#fcd770"/></g><g><path d="m52 50h2c1.1 0 2 .9 2 2v2c0 1.1-.9 2-2 2h-4-4-2-2c-1.1 0-2-.9-2-2v-2c0-1.1.9-2 2-2h2 4z" fill="#ffc729"/></g><g><path d="m22.43 35.57c4.5 2.32 7.57 7.02 7.57 12.43 0 7.73-6.27 14-14 14s-14-6.27-14-14 6.27-14 14-14c2.32 0 4.5.57 6.43 1.57z" fill="#ffc729"/></g><g><path d="m26 48c0 2.4-.85 4.61-2.26 6.34l-1.4 1.4c-1.73 1.41-3.94 2.26-6.34 2.26-5.52 0-10-4.48-10-10 0-2.4.85-4.61 2.26-6.34l1.4-1.4c1.73-1.41 3.94-2.26 6.34-2.26 5.52 0 10 4.48 10 10z" fill="#fcd770"/></g></g><g><path d="m15 51c-.552 0-1-.448-1-1h-2c0 1.654 1.346 3 3 3v2h2v-2h3v-3c0-1.654-1.346-3-3-3h-2c-.552 0-1-.448-1-1v-1h3c.552 0 1 .448 1 1h2c0-1.654-1.346-3-3-3v-2h-2v2h-3v3c0 1.654 1.346 3 3 3h2c.552 0 1 .448 1 1v1z"/><path d="m16 57c-4.963 0-9-4.037-9-9 0-2.074.724-4.1 2.038-5.702l-1.547-1.268c-1.606 1.959-2.491 4.435-2.491 6.97 0 6.065 4.935 11 11 11 2.535 0 5.011-.885 6.97-2.491l-1.268-1.547c-1.602 1.314-3.628 2.038-5.702 2.038z"/><path d="m9.03 39.491 1.268 1.547c1.602-1.314 3.628-2.038 5.702-2.038 4.963 0 9 4.037 9 9 0 2.074-.724 4.1-2.038 5.702l1.547 1.268c1.606-1.959 2.491-4.435 2.491-6.97 0-6.065-4.935-11-11-11-2.535 0-5.011.885-6.97 2.491z"/><path d="m61 37c1.103 0 2-.897 2-2v-4c0-1.103-.897-2-2-2h-16.586l10.186-10.186 4.215 4.214 3.46-17.303-17.303 3.46 4.214 4.214-10.186 10.187-7-7-2.414 2.414h-5.586c-2.826 0-5.349 1.312-7 3.356v-.356-5h5c4.963 0 9-4.038 9-9v-1h-7c-2.826 0-5.349 1.312-7 3.356v-.356c0-4.962-4.037-9-9-9h-7v1c0 4.962 4.037 9 9 9h5v5 .356c-1.651-2.044-4.174-3.356-7-3.356h-7v1c0 4.962 4.037 9 9 9h5v5 1 4.051c-7.805.518-14 7.015-14 14.949 0 8.271 6.729 15 15 15s15-6.729 15-15c0-5.308-2.779-9.969-6.95-12.636l7.95-7.95 3.075 3.075c-.044.164-.075.333-.075.511v4c0 1.103.897 2 2 2h1v2.586l-1.535 1.535c-.944.944-1.465 2.2-1.465 3.536v13.343c0 2.757 2.243 5 5 5h4 12 2c2.757 0 5-2.243 5-5v-13.343c0-1.336-.521-2.592-1.465-3.536l-1.535-1.535v-2.586zm-37-16h4.929c-.486 3.388-3.408 6-6.929 6h-4.929c.487-3.388 3.408-6 6.929-6zm0-12h4.929c-.486 3.388-3.408 6-6.929 6h-4.929c.487-3.388 3.408-6 6.929-6zm-14 0c-3.521 0-6.442-2.612-6.929-6h4.929c3.521 0 6.442 2.612 6.929 6zm0 12c-3.521 0-6.442-2.612-6.929-6h4.929c3.521 0 6.442 2.612 6.929 6zm9.586 8-2.586 2.586v-2.586zm9.414 19c0 7.168-5.832 13-13 13s-13-5.832-13-13 5.832-13 13-13 13 5.832 13 13zm-6.781-13.633c-1.248-.572-2.587-.972-3.99-1.182l4.207-4.207c4.614-.223 8.319-3.928 8.542-8.542l1.022-1.022 7 7 13.014-13.014-2.985-2.986 10.697-2.139-2.14 10.697-2.986-2.986-13.014 13.014h-4.586c-.178 0-.347.031-.511.075l-4.489-4.489zm14.781-3.367h24l.002 4h-24.002zm6 17v-2c0-.552.448-1 1-1h1v2h2v-2h2v2h2v-2h2v2h2v-2h1c.552 0 1 .448 1 1v2c0 .552-.448 1-1 1h-2-10c-.552 0-1-.448-1-1zm-1 3h1v2h2v-2h2v2h2v-2h2v2h2v-2h1c.552 0 1 .448 1 1v2c0 .552-.448 1-1 1h-10-2c-.552 0-1-.448-1-1v-2c0-.552.448-1 1-1zm2 10c-.552 0-1-.448-1-1v-2c0-.552.448-1 1-1h1v2h2v-2h2v2h2v-2h2v2h2v-2h1c.552 0 1 .448 1 1v2c0 .552-.448 1-1 1zm16.121-18.465c.567.567.879 1.32.879 2.122v13.343c0 1.354-.907 2.487-2.141 2.859.083-.274.141-.558.141-.859v-2c0-1.383-.945-2.539-2.22-2.884.139-.346.22-.721.22-1.116v-2c0-.395-.081-.77-.22-1.116 1.275-.346 2.22-1.501 2.22-2.884v-2c0-1.654-1.346-3-3-3h-12c-1.654 0-3 1.346-3 3v2c0 .395.081.77.22 1.116-1.275.345-2.22 1.501-2.22 2.884v2c0 1.383.945 2.539 2.22 2.884-.139.346-.22.721-.22 1.116v2c0 .352.072.686.184 1h-1.184c-1.654 0-3-1.346-3-3v-13.343c0-.802.313-1.556.879-2.122l2.121-2.121v-3.414h18v3.414z"/></g></g></svg>