<?xml version="1.0" encoding="iso-8859-1"?>
<!-- Generator: Adobe Illustrator 19.0.0, SVG Export Plug-In . SVG Version: 6.00 Build 0)  -->
<svg version="1.1" id="Capa_1" xmlns="http://www.w3.org/2000/svg" xmlns:xlink="http://www.w3.org/1999/xlink" x="0px" y="0px"
	 viewBox="0 0 480.157 480.157" style="enable-background:new 0 0 480.157 480.157;" xml:space="preserve">
<path style="fill:#B4B9F2;" d="M240.078,8.037L7.998,240.117h40.08v232h128v-192h128v192h128v-232h40.08l-80.08-80.08l-48-48
	L240.078,8.037z"/>
<g>
	<path style="fill:#7C84E8;" d="M344.078,56.117v55.92l48,48V56.117H344.078z"/>
	<path style="fill:#7C84E8;" d="M176.078,280.117h128v192h-128V280.117z"/>
</g>
<path style="fill:#231F20;" d="M477.814,234.461l-77.736-77.736V56.117c0-4.418-3.582-8-8-8h-48c-4.418,0-8,3.582-8,8v36.608
	L245.734,2.381c-3.124-3.123-8.188-3.123-11.312,0L2.342,234.461c-3.124,3.125-3.123,8.19,0.002,11.314
	c1.5,1.499,3.534,2.342,5.654,2.342h32.08v224c0,4.418,3.582,8,8,8h384c4.418,0,8-3.582,8-8v-224h32.08
	c4.418-0.001,7.999-3.583,7.998-8.002C480.156,237.995,479.314,235.961,477.814,234.461L477.814,234.461z M352.078,64.117h32v76.608
	l-32-32V64.117z M184.078,464.117v-176h112v176H184.078z M432.078,232.117c-4.418,0-8,3.582-8,8v224h-112v-184c0-4.418-3.582-8-8-8
	h-128c-4.418,0-8,3.582-8,8v184h-112v-224c0-4.418-3.582-8-8-8h-20.8l212.8-212.8l212.8,212.8H432.078z"/>
<g>
</g>
<g>
</g>
<g>
</g>
<g>
</g>
<g>
</g>
<g>
</g>
<g>
</g>
<g>
</g>
<g>
</g>
<g>
</g>
<g>
</g>
<g>
</g>
<g>
</g>
<g>
</g>
<g>
</g>
</svg>
