<svg id="Layer_35" enable-background="new 0 0 64 64" height="512" viewBox="0 0 64 64" width="512" xmlns="http://www.w3.org/2000/svg"><path d="m36.67 48-1.62-.73-2.16-.97-.53-.24c-.68-.3-1.24-.78-1.64-1.36-.46-.66-.72-1.45-.72-2.29v-1.34l-.2-.24c1.35-1.04 2.52-2.29 3.46-3.69 1.06-1.55 1.83-3.29 2.28-5.14h.01.45c1.1 0 2.1-.45 2.83-1.17.72-.73 1.17-1.73 1.17-2.83v-8c0-3.86-1.57-7.36-4.1-9.9-2.54-2.53-6.04-4.1-9.9-4.1-1.39 0-2.73.2-4 .58v-4.58h40v46z" fill="#ffeaa7"/><path d="m40 20v8c0-1.1-.45-2.1-1.17-2.83-.73-.72-1.73-1.17-2.83-1.17h-.54c-.69-1.2-1.98-2-3.46-2h-7.09c-1.9 0-3.75-.56-5.33-1.61-.38-.26-.82-.39-1.28-.39-.64 0-1.21.26-1.63.67-.41.42-.67.99-.67 1.63v1.7c-2.21 0-4 1.79-4 4v-8c0-6.34 4.22-11.7 10-13.42 1.27-.38 2.61-.58 4-.58 3.86 0 7.36 1.57 9.9 4.1 2.53 2.54 4.1 6.04 4.1 9.9z" fill="#656d78"/><path d="m54 18h4v26h-4z" fill="#b4dd7f"/><path d="m46 26h4v18h-4z" fill="#b4dd7f"/><path d="m38 36h4v8h-4z" fill="#b4dd7f"/><path d="m10 62h-8c0-4.87 2.86-9.28 7.3-11.28l7.65-3.45-.95 5.73 4 3-2 3 5 3z" fill="#cf9e76"/><path d="m42 62h-13l5-3-2-3 4-3-.95-5.73 1.62.73 6.03 2.72c2.22 1 4.04 2.6 5.32 4.56 1.26 1.96 1.98 4.28 1.98 6.72z" fill="#cf9e76"/><path d="m22.09 54.26 2.91 7.74h-2l-5-3 2-3-4-3 .95-5.73 2.16-.97z" fill="#b27946"/><path d="m32 56 2 3-5 3h-2l2.91-7.74 2.98-7.96 2.16.97.95 5.73z" fill="#b27946"/><path d="m29.91 54.26-2.91 7.74h-2l-2.91-7.74 3.91-3.26z" fill="#e6e9ed"/><path d="m32.89 46.3-2.98 7.96-3.91-3.26 4.72-6.3c.4.58.96 1.06 1.64 1.36z" fill="#e6e9ed"/><path d="m21.28 44.7 4.72 6.3-3.91 3.26-2.98-7.96.53-.24c.68-.3 1.24-.78 1.64-1.36z" fill="#e6e9ed"/><g fill="#f0d0b4"><path d="m30 42.41c0 .84.26 1.63.72 2.29l-4.72 6.3-4.72-6.3c.46-.66.72-1.45.72-2.29v-1.34l.2-.24c1.14.88 2.42 1.62 3.8 2.17l3.8-2.17.2.24z"/><path d="m35.54 32c.3-1.22.46-2.48.46-3.77v-2.23c0-.73-.2-1.41-.54-2h.54c1.1 0 2.1.45 2.83 1.17.72.73 1.17 1.73 1.17 2.83s-.45 2.1-1.17 2.83c-.73.72-1.73 1.17-2.83 1.17h-.45z"/><path d="m16 28.23c0 1.29.16 2.55.46 3.77h-.01-.45c-1.1 0-2.1-.45-2.83-1.17-.72-.73-1.17-1.73-1.17-2.83 0-2.21 1.79-4 4-4z"/><path d="m35.46 24c.34.59.54 1.27.54 2v2.23c0 1.29-.16 2.55-.46 3.77-.45 1.85-1.22 3.59-2.28 5.14-.94 1.4-2.11 2.65-3.46 3.69l-3.8 2.17c-1.38-.55-2.66-1.29-3.8-2.17-2.86-2.2-4.89-5.32-5.74-8.83-.3-1.22-.46-2.48-.46-3.77v-4.23-1.7c0-.64.26-1.21.67-1.63.42-.41.99-.67 1.63-.67.46 0 .9.13 1.28.39 1.58 1.05 3.43 1.61 5.33 1.61h7.09c1.48 0 2.77.8 3.46 2z"/></g><path d="m26 38c2.206 0 4-1.794 4-4h-2c0 1.103-.897 2-2 2s-2-.897-2-2h-2c0 2.206 1.794 4 4 4z"/><circle cx="21" cy="26" r="1"/><circle cx="31" cy="26" r="1"/><path d="m63 1h-42v4.875c-5.817 2.066-10 7.609-10 14.125v8c0 2.646 2.073 4.797 4.676 4.967.927 3.204 2.778 6.045 5.324 8.184v1.263c0 1.178-.694 2.252-1.769 2.735l-10.346 4.656c-4.79 2.156-7.885 6.942-7.885 12.195v1h50v-1c0-5.253-3.095-10.039-7.885-12.195l-1.788-.805h21.673zm-37 6c7.168 0 13 5.832 13 13v4.026c-.838-.635-1.87-1.026-3-1.026h-.026c-.914-1.207-2.348-2-3.974-2h-7.092c-1.704 0-3.354-.5-4.773-1.445-.544-.364-1.178-.555-1.832-.555-1.822 0-3.303 1.481-3.303 3.303v.798c-.743.152-1.416.482-2 .924v-4.025c0-7.168 5.832-13 13-13zm10.915 18.158c1.205.389 2.085 1.509 2.085 2.842 0 1.378-.94 2.531-2.208 2.88.135-.866.208-1.751.208-2.651v-2.229c0-.288-.038-.567-.085-.842zm-23.915 2.842c0-1.302.839-2.402 2-2.816v3.045c0 .899.073 1.784.208 2.651-1.269-.349-2.208-1.502-2.208-2.88zm4 .229v-5.927c0-.718.584-1.302 1.303-1.302.258 0 .508.075.723.219 1.747 1.165 3.782 1.781 5.882 1.781h7.092c1.654 0 3 1.346 3 3v2.229c0 5.997-3.519 11.326-9 13.688-5.481-2.361-9-7.69-9-13.688zm8.629 15.7.371.148.371-.148c.932-.373 1.81-.828 2.642-1.342.025.722.204 1.415.516 2.043l-3.529 4.703-3.528-4.704c.311-.627.49-1.32.516-2.043.831.514 1.709.97 2.641 1.343zm8.518 4.034.768 4.602-4.271 3.203 1.942 2.914-3.863 2.318h-.279l5.013-13.348zm-14.733 10.719 1.942-2.914-4.271-3.203.768-4.602.69-.31 5.013 13.347h-.279zm5.216-7.842-2.096 1.747-2.171-5.781c.296-.159.576-.34.829-.551zm-1.352 3.73 2.722-2.268 2.722 2.268-2.415 6.43h-.614zm6.189-1.983-2.097-1.747 3.439-4.586c.253.211.533.392.829.551zm-19.762-.958 5.957-2.68-.748 4.487 3.729 2.797-2.058 3.086 2.804 1.681h-8.389v-6h-2v6h-5.956c.36-4.066 2.894-7.676 6.661-9.371zm39.251 9.371h-5.956v-6h-2v6h-8.389l2.803-1.682-2.058-3.086 3.729-2.797-.748-4.487 5.957 2.68c3.768 1.696 6.302 5.306 6.662 9.372zm12.044-14h-24.118l-4.113-1.851c-1.075-.483-1.769-1.557-1.769-2.735v-1.263c2.546-2.139 4.397-4.98 5.324-8.184 2.603-.17 4.676-2.321 4.676-4.967v-8c0-8.271-6.729-15-15-15-1.027 0-2.03.105-3 .302v-2.302h38z"/><path d="m53 45h6v-28h-6zm2-26h2v24h-2z"/><path d="m45 45h6v-20h-6zm2-18h2v16h-2z"/><path d="m37 45h6v-10h-6zm2-8h2v6h-2z"/><path d="m57 5h2v2h-2z"/><path d="m53 5h2v2h-2z"/><path d="m43 5h8v2h-8z"/><path d="m43 9h16v2h-16z"/><path d="m43 13h16v2h-16z"/></svg>