<svg id="Filled" height="512" viewBox="0 0 512 512" width="512" xmlns="http://www.w3.org/2000/svg"><path d="m440 488h-16a16 16 0 0 1 -16-16v-32h48v32a16 16 0 0 1 -16 16z" fill="#4f5659"/><path d="m280 168h144a32 32 0 0 1 32 32v72a0 0 0 0 1 0 0h-208a0 0 0 0 1 0 0v-72a32 32 0 0 1 32-32z" fill="#1261a0"/><path d="m248 360h208v96h-208z" fill="#1261a0"/><path d="m248 232h208v128h-208z" fill="#e9eef2"/><path d="m248 456h48a0 0 0 0 1 0 0v16a16 16 0 0 1 -16 16h-16a16 16 0 0 1 -16-16v-16a0 0 0 0 1 0 0z" fill="#4f5659"/><path d="m456 248h16a16 16 0 0 1 16 16v32a16 16 0 0 1 -16 16h-16a0 0 0 0 1 0 0v-64a0 0 0 0 1 0 0z" fill="#f7b030"/><path d="m424 392h32v32h-32z" fill="#f7b030"/><path d="m312 392h80v32h-80z" fill="#e9eef2"/><path d="m416 208h-128a8 8 0 0 1 0-16h128a8 8 0 0 1 0 16z" fill="#e9eef2"/><circle cx="280" cy="200" fill="#f0c6a4" r="32"/><circle cx="72" cy="200" fill="#f0c6a4" r="32"/><rect fill="#f7cca9" height="232" rx="104" width="208" x="72" y="64"/><path d="m56 296h240a32 32 0 0 1 32 32v160a0 0 0 0 1 0 0h-304a0 0 0 0 1 0 0v-160a32 32 0 0 1 32-32z" fill="#3397e8"/><circle cx="176" cy="48" fill="#c3c6c7" r="24"/><path d="m288 152h-224v-32a64 64 0 0 1 64-64h96a64 64 0 0 1 64 64z" fill="#1261a0"/><path d="m216 424h64v64h-64z" fill="#1261a0"/><path d="m312 176-136-16-136 16a32 32 0 0 1 32-32l104-16 104 16a32 32 0 0 1 32 32z" fill="#2d85cc"/><path d="m216 424h64v32h-64z" fill="#c3c6c7"/><path d="m128 296h96v64h-96z" fill="#f7cca9"/><path d="m128 296 48 64-48 24z" fill="#1261a0"/><path d="m176 360 48 24v-88z" fill="#1261a0"/><path d="m472 240h-8v-40a40.045 40.045 0 0 0 -40-40h-107.351a40.235 40.235 0 0 0 -20.649-20.659v-19.341a72.081 72.081 0 0 0 -72-72h-16a32 32 0 0 0 -64 0h-16a72.081 72.081 0 0 0 -72 72v19.341a40.058 40.058 0 0 0 -24 36.659 7.908 7.908 0 0 0 3.881 6.848 39.971 39.971 0 0 0 36.119 57.152h2.821a112.769 112.769 0 0 0 43.548 48h-62.369a40.045 40.045 0 0 0 -40 40v160a8 8 0 0 0 8 8h304a8 8 0 0 0 8-8v-24h64v8a24.027 24.027 0 0 0 24 24h16a24.027 24.027 0 0 0 24-24v-152h8a24.028 24.028 0 0 0 24-24v-32a24.028 24.028 0 0 0 -24-24zm-40 96h16v16h-112v-16h64a8 8 0 0 0 0-16h-64.8a40.068 40.068 0 0 0 -39.2-32h-62.369a112.481 112.481 0 0 0 11.575-8h202.794v40h-16a8 8 0 0 0 0 16zm-96 64h48v16h-48zm-159.134-53.334-32.666-42.666h64zm39.134-26.257v50.524l-26.984-13.78zm-80-.8 28.712 37.5-28.712 14.065zm160.069-137.428a23.992 23.992 0 0 1 -12.661 41.573 111.652 111.652 0 0 0 4.592-31.754v-10.768zm-18.89 57.819h170.821v24h-186.283a112.324 112.324 0 0 0 15.462-24zm146.821-64a24.028 24.028 0 0 1 24 24v24h-136.022a39.841 39.841 0 0 0 7.217-16h96.805a8 8 0 0 0 0-16h-96.819a40.006 40.006 0 0 0 -3.059-9.145 7.983 7.983 0 0 0 3.878-6.855zm-248-144a16.019 16.019 0 0 1 16 16h-32a16.019 16.019 0 0 1 16-16zm-48 32h96a56.063 56.063 0 0 1 56 56v15.906l-102.784-15.813a8.061 8.061 0 0 0 -2.432 0l-102.784 15.813v-15.906a56.063 56.063 0 0 1 56-56zm-56 88a7.982 7.982 0 0 0 1.216-.093l102.784-15.813 102.784 15.813a7.982 7.982 0 0 0 1.216.093 24.039 24.039 0 0 1 22.162 14.787l-125.227-14.732a7.975 7.975 0 0 0 -1.87 0l-125.227 14.732a24.039 24.039 0 0 1 22.162-14.787zm-24 48a24.021 24.021 0 0 1 7.93-17.819l8.07-.949v10.768a111.652 111.652 0 0 0 4.592 31.754 24.034 24.034 0 0 1 -20.592-23.754zm32-8v-12.651l96-11.293 96 11.293v12.651a96 96 0 0 1 -192 0zm-48 136a24.027 24.027 0 0 1 24-24h64v80a8 8 0 0 0 11.519 7.185l36.481-17.869v106.684h-136zm240 120h-48v-16h48zm-48 16h48v16h-48zm96 16h-32v-56a8 8 0 0 0 -8-8h-64a8 8 0 0 0 -8 8v56h-24v-107.443l36.362 18.568a8 8 0 0 0 11.638-7.125v-80h64a24.027 24.027 0 0 1 24 24zm16-48h56a8 8 0 0 0 8-8v-32a8 8 0 0 0 -8-8h-56v-16h112v16h-24a8 8 0 0 0 -8 8v32a8 8 0 0 0 8 8h24v16h-112zm112-16h-16v-16h16zm-8 64h-16a8.009 8.009 0 0 1 -8-8v-8h32v8a8.009 8.009 0 0 1 -8 8zm40-184a8.009 8.009 0 0 1 -8 8h-8v-48h8a8.009 8.009 0 0 1 8 8z"/><circle cx="216" cy="200" r="8"/><circle cx="136" cy="200" r="8"/><path d="m168 224h16a8 8 0 0 0 0-16h-8v-8a8 8 0 0 0 -16 0v16a8 8 0 0 0 8 8z"/><path d="m219.077 224.615a8 8 0 0 0 -10.462 4.308c-.079.191-8.23 19.077-32.615 19.077-23.956 0-32.248-18.238-32.636-19.126a8 8 0 0 0 -14.749 6.2c.492 1.184 12.453 28.926 47.385 28.926s46.893-27.742 47.385-28.923a8 8 0 0 0 -4.308-10.462z"/><path d="m112 432h-40a8 8 0 0 0 0 16h40a8 8 0 0 0 0-16z"/><path d="m152 104h48a8 8 0 0 0 0-16h-48a8 8 0 0 0 0 16z"/></svg>